PathFileType	4	(X/Y/Z)	D:\TRACE\v60_Jaco2_6-2-23\ArmBody_Mo2_DMP_1-platform.trc
DataRate	CameraRate	NumFrames	NumMarkers	Units	OrigDataRate	OrigDataStartFrame	OrigNumFrames
100.00	100.00	      28	5	mm	100.00	4914	      6551
Frame#	Time	Left_Front			Right_Front			Left_Aft			Right_Aft			Post			
		X1	Y1	Z1	X2	Y2	Z2	X3	Y3	Z3	X4	Y4	Z4	X5	Y5	Z5	

4914	49.130				753.43884	-49.04210	-644.67761	-746.46930	46.47549	465.18097	671.31537	56.03748	566.85553	-21.70351	1214.14795	-1102.91968	
4915	49.140				754.21234	-48.66296	-644.58911	-745.29456	45.74028	465.39758	672.00555	55.63711	566.98352	-20.73633	1214.93896	-1101.82117	
4916	49.150				754.83649	-48.00272	-644.23022	-744.39276	45.71817	465.80655	672.97284	55.26021	567.19415	-19.94658	1215.91980	-1100.75476	
4917	49.160				756.11786	-47.11517	-644.21973	-743.43170	45.07635	465.99844	673.70776	54.63370	567.29303	-19.20983	1216.81433	-1099.75134	
4918	49.170				757.07953	-46.79731	-644.25085	-742.28546	44.73454	466.14423	674.66571	54.28451	567.33661	-18.01183	1217.86523	-1098.38623	
4919	49.180				757.92999	-46.38075	-644.13464	-741.69574	44.65100	466.24860	675.46063	53.44293	567.31689	-17.29116	1218.86182	-1097.06628	
4920	49.190				758.88788	-45.94656	-643.99945	-740.88770	44.20790	466.19968	675.45953	52.75049	566.69019	-16.36251	1219.65540	-1095.53406	
4921	49.200				759.89197	-45.29089	-644.00287	-739.74890	43.91161	466.25711	678.68469	53.80727	568.68451	-15.47474	1220.62097	-1093.82568	
4922	49.210				760.61804	-44.83612	-644.04065	-738.99396	43.75256	466.32037	679.09552	52.97192	568.75763	-14.64315	1221.59058	-1092.29797	
4923	49.220				761.67706	-44.03958	-643.75964	-737.71082	43.21511	466.54840	680.07593	52.19498	568.64349	-13.25863	1222.73877	-1090.56580	
4924	49.230				763.11383	-43.28700	-643.44971	-736.85791	42.84214	466.78220	680.95135	51.70350	568.51428	-12.58649	1223.91223	-1088.72241	
4925	49.240				763.94360	-42.71957	-643.65698	-735.95526	42.37945	466.93588	681.57404	50.97225	568.64832	-12.00121	1225.11780	-1086.87158	
4926	49.250				764.99927	-41.81250	-643.17047	-734.92072	41.64252	467.02960	683.50818	51.06377	569.23096	-10.83935	1226.12231	-1084.95471	
4927	49.260				766.02039	-41.29992	-643.13367	-734.01581	41.24165	467.39706	683.88550	49.84031	569.36090	-9.75021	1227.69897	-1082.97681	
4928	49.270				767.39453	-40.17112	-642.96234	-732.49847	40.41371	467.61411	685.02155	49.21694	569.64404	-8.25178	1229.03687	-1081.14856	
4929	49.280				768.25226	-39.01607	-642.88879	-731.72156	40.12924	467.99466	685.72034	48.29052	569.57635	-7.50427	1230.66553	-1078.97144	
4930	49.290				769.56757	-38.09552	-642.58282	-730.19971	39.30816	468.08347	686.53455	47.04148	569.31952	-6.53028	1232.32166	-1077.11157	
4931	49.300				770.30872	-37.23254	-642.47650	-729.63336	38.62330	468.52347	688.96716	47.38679	570.72400	-5.66878	1234.15283	-1074.81470	
4932	49.310				771.42188	-36.00510	-642.37250	-728.30286	37.76917	468.95779	690.39453	46.81490	571.70673	-4.62030	1235.93726	-1072.32336	
4933	49.320				772.76648	-34.59168	-641.84741	-727.16626	37.04369	469.25427	691.31573	45.58681	571.99371	-3.24941	1237.86926	-1070.22046	
4934	49.330				773.58478	-33.62648	-641.67719	-726.25867	36.38212	469.56839	692.31824	44.53018	572.37573	-2.36798	1239.58911	-1067.77563	
4935	49.340				774.96729	-32.30914	-641.72089	-725.21393	35.55928	469.93710	693.03705	43.58954	572.56665	-1.37494	1241.85791	-1065.46924	
4936	49.350				776.03766	-31.27976	-641.39111	-724.20856	34.72415	470.14371	694.01959	42.40727	572.72644	-0.49654	1243.63220	-1062.88733	
4937	49.360				776.98132	-30.07175	-641.01819	-723.04449	33.91220	470.71133	695.18713	41.30905	572.94171	0.63717	1245.51904	-1060.13098	
4938	49.370				778.21161	-28.76314	-640.74176	-722.23029	33.18221	471.18893	696.17902	40.42714	573.37769	2.15075	1247.32947	-1057.41455	
4939	49.380				779.30035	-27.74244	-640.90759	-720.47412	32.23025	471.30936	696.91394	39.36428	573.76563	3.08182	1249.48022	-1054.54712	
4940	49.390				780.47565	-26.28870	-640.26434	-719.36725	31.34993	471.81149	698.21362	38.41940	573.93744	3.89547	1251.50598	-1051.63696	
4941	49.400				781.74524	-25.05921	-640.05127	-718.29370	30.63586	471.89743	699.35425	37.37615	574.25964	5.15371	1253.41345	-1048.75635	
